<mxfile host="Electron" modified="2023-05-05T20:14:08.093Z" agent="Mozilla/5.0 (Windows NT 10.0; Win64; x64) AppleWebKit/537.36 (KHTML, like Gecko) draw.io/21.2.8 Chrome/112.0.5615.165 Electron/24.2.0 Safari/537.36" etag="61DQNKzGhIc-UD8Uxr0u" version="21.2.8" type="device">
  <diagram name="Page-1" id="v6dn-JEv8c6cozMCZ4M5">
    <mxGraphModel dx="864" dy="514" grid="1" gridSize="10" guides="1" tooltips="1" connect="1" arrows="1" fold="1" page="1" pageScale="1" pageWidth="850" pageHeight="1100" math="0" shadow="0">
      <root>
        <mxCell id="0" />
        <mxCell id="1" parent="0" />
        <mxCell id="5RDlhihg--RsLZpTW5sZ-24" style="edgeStyle=orthogonalEdgeStyle;rounded=0;orthogonalLoop=1;jettySize=auto;html=1;exitX=0;exitY=0.75;exitDx=0;exitDy=0;entryX=0.5;entryY=0;entryDx=0;entryDy=0;endArrow=none;endFill=0;" edge="1" parent="1" source="5RDlhihg--RsLZpTW5sZ-2" target="5RDlhihg--RsLZpTW5sZ-5">
          <mxGeometry relative="1" as="geometry">
            <Array as="points">
              <mxPoint x="360" y="130" />
              <mxPoint x="185" y="130" />
            </Array>
          </mxGeometry>
        </mxCell>
        <mxCell id="5RDlhihg--RsLZpTW5sZ-25" style="edgeStyle=orthogonalEdgeStyle;rounded=0;orthogonalLoop=1;jettySize=auto;html=1;exitX=1;exitY=0.75;exitDx=0;exitDy=0;entryX=0.5;entryY=0;entryDx=0;entryDy=0;endArrow=none;endFill=0;" edge="1" parent="1" source="5RDlhihg--RsLZpTW5sZ-2" target="5RDlhihg--RsLZpTW5sZ-9">
          <mxGeometry relative="1" as="geometry">
            <Array as="points">
              <mxPoint x="490" y="130" />
              <mxPoint x="640" y="130" />
            </Array>
          </mxGeometry>
        </mxCell>
        <mxCell id="5RDlhihg--RsLZpTW5sZ-26" style="edgeStyle=orthogonalEdgeStyle;rounded=0;orthogonalLoop=1;jettySize=auto;html=1;exitX=0.5;exitY=1;exitDx=0;exitDy=0;entryX=0.5;entryY=0;entryDx=0;entryDy=0;endArrow=none;endFill=0;" edge="1" parent="1" source="5RDlhihg--RsLZpTW5sZ-2" target="5RDlhihg--RsLZpTW5sZ-7">
          <mxGeometry relative="1" as="geometry" />
        </mxCell>
        <mxCell id="5RDlhihg--RsLZpTW5sZ-2" value="0" style="swimlane;whiteSpace=wrap;html=1;" vertex="1" parent="1">
          <mxGeometry x="360" y="30" width="130" height="100" as="geometry" />
        </mxCell>
        <mxCell id="5RDlhihg--RsLZpTW5sZ-3" value="Main menu&lt;br&gt;(Home page)" style="text;html=1;align=center;verticalAlign=middle;resizable=0;points=[];autosize=1;strokeColor=none;fillColor=none;" vertex="1" parent="5RDlhihg--RsLZpTW5sZ-2">
          <mxGeometry x="20" y="45" width="90" height="40" as="geometry" />
        </mxCell>
        <mxCell id="5RDlhihg--RsLZpTW5sZ-29" style="edgeStyle=orthogonalEdgeStyle;rounded=0;orthogonalLoop=1;jettySize=auto;html=1;exitX=0.25;exitY=1;exitDx=0;exitDy=0;entryX=0;entryY=0.5;entryDx=0;entryDy=0;endArrow=none;endFill=0;" edge="1" parent="1" source="5RDlhihg--RsLZpTW5sZ-5" target="5RDlhihg--RsLZpTW5sZ-20">
          <mxGeometry relative="1" as="geometry" />
        </mxCell>
        <mxCell id="5RDlhihg--RsLZpTW5sZ-30" style="edgeStyle=orthogonalEdgeStyle;rounded=0;orthogonalLoop=1;jettySize=auto;html=1;exitX=0.25;exitY=1;exitDx=0;exitDy=0;entryX=0;entryY=0.5;entryDx=0;entryDy=0;endArrow=none;endFill=0;" edge="1" parent="1" source="5RDlhihg--RsLZpTW5sZ-5" target="5RDlhihg--RsLZpTW5sZ-27">
          <mxGeometry relative="1" as="geometry" />
        </mxCell>
        <mxCell id="5RDlhihg--RsLZpTW5sZ-5" value="1" style="swimlane;whiteSpace=wrap;html=1;" vertex="1" parent="1">
          <mxGeometry x="120" y="190" width="130" height="100" as="geometry" />
        </mxCell>
        <mxCell id="5RDlhihg--RsLZpTW5sZ-6" value="Search for Courses" style="text;html=1;align=center;verticalAlign=middle;resizable=0;points=[];autosize=1;strokeColor=none;fillColor=none;" vertex="1" parent="5RDlhihg--RsLZpTW5sZ-5">
          <mxGeometry y="50" width="130" height="30" as="geometry" />
        </mxCell>
        <mxCell id="5RDlhihg--RsLZpTW5sZ-33" style="rounded=0;orthogonalLoop=1;jettySize=auto;html=1;exitX=0.25;exitY=1;exitDx=0;exitDy=0;entryX=0;entryY=0.5;entryDx=0;entryDy=0;edgeStyle=orthogonalEdgeStyle;endArrow=none;endFill=0;" edge="1" parent="1" source="5RDlhihg--RsLZpTW5sZ-7" target="5RDlhihg--RsLZpTW5sZ-31">
          <mxGeometry relative="1" as="geometry">
            <Array as="points">
              <mxPoint x="390" y="290" />
              <mxPoint x="390" y="410" />
            </Array>
          </mxGeometry>
        </mxCell>
        <mxCell id="5RDlhihg--RsLZpTW5sZ-7" value="2" style="swimlane;whiteSpace=wrap;html=1;" vertex="1" parent="1">
          <mxGeometry x="360" y="190" width="130" height="100" as="geometry" />
        </mxCell>
        <mxCell id="5RDlhihg--RsLZpTW5sZ-8" value="Browse by Subject" style="text;html=1;align=center;verticalAlign=middle;resizable=0;points=[];autosize=1;strokeColor=none;fillColor=none;" vertex="1" parent="5RDlhihg--RsLZpTW5sZ-7">
          <mxGeometry x="5" y="50" width="120" height="30" as="geometry" />
        </mxCell>
        <mxCell id="5RDlhihg--RsLZpTW5sZ-39" style="edgeStyle=orthogonalEdgeStyle;rounded=0;orthogonalLoop=1;jettySize=auto;html=1;exitX=0.25;exitY=1;exitDx=0;exitDy=0;entryX=0;entryY=0.5;entryDx=0;entryDy=0;endArrow=none;endFill=0;" edge="1" parent="1" source="5RDlhihg--RsLZpTW5sZ-9" target="5RDlhihg--RsLZpTW5sZ-34">
          <mxGeometry relative="1" as="geometry" />
        </mxCell>
        <mxCell id="5RDlhihg--RsLZpTW5sZ-51" style="edgeStyle=orthogonalEdgeStyle;rounded=0;orthogonalLoop=1;jettySize=auto;html=1;exitX=0.25;exitY=1;exitDx=0;exitDy=0;entryX=0;entryY=0.5;entryDx=0;entryDy=0;endArrow=none;endFill=0;" edge="1" parent="1" source="5RDlhihg--RsLZpTW5sZ-9" target="5RDlhihg--RsLZpTW5sZ-36">
          <mxGeometry relative="1" as="geometry" />
        </mxCell>
        <mxCell id="5RDlhihg--RsLZpTW5sZ-9" value="3" style="swimlane;whiteSpace=wrap;html=1;" vertex="1" parent="1">
          <mxGeometry x="570" y="190" width="140" height="100" as="geometry" />
        </mxCell>
        <mxCell id="5RDlhihg--RsLZpTW5sZ-10" value="Promoted courses" style="text;html=1;align=center;verticalAlign=middle;resizable=0;points=[];autosize=1;strokeColor=none;fillColor=none;" vertex="1" parent="5RDlhihg--RsLZpTW5sZ-9">
          <mxGeometry x="10" y="50" width="120" height="30" as="geometry" />
        </mxCell>
        <mxCell id="5RDlhihg--RsLZpTW5sZ-42" style="rounded=0;orthogonalLoop=1;jettySize=auto;html=1;exitX=1;exitY=0.5;exitDx=0;exitDy=0;entryX=0;entryY=0.5;entryDx=0;entryDy=0;endArrow=none;endFill=0;" edge="1" parent="1" source="5RDlhihg--RsLZpTW5sZ-20" target="5RDlhihg--RsLZpTW5sZ-40">
          <mxGeometry relative="1" as="geometry" />
        </mxCell>
        <mxCell id="5RDlhihg--RsLZpTW5sZ-20" value="1.1" style="swimlane;whiteSpace=wrap;html=1;" vertex="1" parent="1">
          <mxGeometry x="180" y="360" width="130" height="100" as="geometry" />
        </mxCell>
        <mxCell id="5RDlhihg--RsLZpTW5sZ-21" value="Search by Course" style="text;html=1;align=center;verticalAlign=middle;resizable=0;points=[];autosize=1;strokeColor=none;fillColor=none;" vertex="1" parent="5RDlhihg--RsLZpTW5sZ-20">
          <mxGeometry x="5" y="50" width="120" height="30" as="geometry" />
        </mxCell>
        <mxCell id="5RDlhihg--RsLZpTW5sZ-43" style="rounded=0;orthogonalLoop=1;jettySize=auto;html=1;exitX=1;exitY=0.5;exitDx=0;exitDy=0;endArrow=none;endFill=0;" edge="1" parent="1" source="5RDlhihg--RsLZpTW5sZ-27">
          <mxGeometry relative="1" as="geometry">
            <mxPoint x="410" y="600" as="targetPoint" />
          </mxGeometry>
        </mxCell>
        <mxCell id="5RDlhihg--RsLZpTW5sZ-27" value="1.2" style="swimlane;whiteSpace=wrap;html=1;" vertex="1" parent="1">
          <mxGeometry x="180" y="520" width="130" height="100" as="geometry" />
        </mxCell>
        <mxCell id="5RDlhihg--RsLZpTW5sZ-28" value="Search by Tutor" style="text;html=1;align=center;verticalAlign=middle;resizable=0;points=[];autosize=1;strokeColor=none;fillColor=none;" vertex="1" parent="5RDlhihg--RsLZpTW5sZ-27">
          <mxGeometry x="10" y="50" width="110" height="30" as="geometry" />
        </mxCell>
        <mxCell id="5RDlhihg--RsLZpTW5sZ-44" style="edgeStyle=orthogonalEdgeStyle;rounded=0;orthogonalLoop=1;jettySize=auto;html=1;exitX=0.5;exitY=1;exitDx=0;exitDy=0;entryX=0.5;entryY=0;entryDx=0;entryDy=0;endArrow=none;endFill=0;" edge="1" parent="1" source="5RDlhihg--RsLZpTW5sZ-31" target="5RDlhihg--RsLZpTW5sZ-40">
          <mxGeometry relative="1" as="geometry" />
        </mxCell>
        <mxCell id="5RDlhihg--RsLZpTW5sZ-31" value="2.1" style="swimlane;whiteSpace=wrap;html=1;" vertex="1" parent="1">
          <mxGeometry x="410" y="360" width="130" height="100" as="geometry" />
        </mxCell>
        <mxCell id="5RDlhihg--RsLZpTW5sZ-32" value="List by Subject" style="text;html=1;align=center;verticalAlign=middle;resizable=0;points=[];autosize=1;strokeColor=none;fillColor=none;" vertex="1" parent="5RDlhihg--RsLZpTW5sZ-31">
          <mxGeometry x="15" y="50" width="100" height="30" as="geometry" />
        </mxCell>
        <mxCell id="5RDlhihg--RsLZpTW5sZ-45" style="rounded=0;orthogonalLoop=1;jettySize=auto;html=1;exitX=0;exitY=1;exitDx=0;exitDy=0;entryX=1;entryY=0.5;entryDx=0;entryDy=0;endArrow=none;endFill=0;" edge="1" parent="1" source="5RDlhihg--RsLZpTW5sZ-34" target="5RDlhihg--RsLZpTW5sZ-40">
          <mxGeometry relative="1" as="geometry" />
        </mxCell>
        <mxCell id="5RDlhihg--RsLZpTW5sZ-34" value="3.1" style="swimlane;whiteSpace=wrap;html=1;" vertex="1" parent="1">
          <mxGeometry x="640" y="360" width="140" height="100" as="geometry" />
        </mxCell>
        <mxCell id="5RDlhihg--RsLZpTW5sZ-35" value="Popular Courses" style="text;html=1;align=center;verticalAlign=middle;resizable=0;points=[];autosize=1;strokeColor=none;fillColor=none;" vertex="1" parent="5RDlhihg--RsLZpTW5sZ-34">
          <mxGeometry x="15" y="50" width="110" height="30" as="geometry" />
        </mxCell>
        <mxCell id="5RDlhihg--RsLZpTW5sZ-46" style="rounded=0;orthogonalLoop=1;jettySize=auto;html=1;exitX=0;exitY=0.75;exitDx=0;exitDy=0;entryX=1;entryY=0.5;entryDx=0;entryDy=0;endArrow=none;endFill=0;" edge="1" parent="1" source="5RDlhihg--RsLZpTW5sZ-36" target="5RDlhihg--RsLZpTW5sZ-40">
          <mxGeometry relative="1" as="geometry" />
        </mxCell>
        <mxCell id="5RDlhihg--RsLZpTW5sZ-36" value="3.2" style="swimlane;whiteSpace=wrap;html=1;" vertex="1" parent="1">
          <mxGeometry x="645" y="510" width="130" height="100" as="geometry" />
        </mxCell>
        <mxCell id="5RDlhihg--RsLZpTW5sZ-37" value="New Courses" style="text;html=1;align=center;verticalAlign=middle;resizable=0;points=[];autosize=1;strokeColor=none;fillColor=none;" vertex="1" parent="5RDlhihg--RsLZpTW5sZ-36">
          <mxGeometry x="15" y="50" width="100" height="30" as="geometry" />
        </mxCell>
        <mxCell id="5RDlhihg--RsLZpTW5sZ-57" style="edgeStyle=orthogonalEdgeStyle;rounded=0;orthogonalLoop=1;jettySize=auto;html=1;exitX=0.5;exitY=1;exitDx=0;exitDy=0;entryX=0.5;entryY=0;entryDx=0;entryDy=0;endArrow=none;endFill=0;" edge="1" parent="1" source="5RDlhihg--RsLZpTW5sZ-40" target="5RDlhihg--RsLZpTW5sZ-49">
          <mxGeometry relative="1" as="geometry" />
        </mxCell>
        <mxCell id="5RDlhihg--RsLZpTW5sZ-58" style="edgeStyle=orthogonalEdgeStyle;rounded=0;orthogonalLoop=1;jettySize=auto;html=1;exitX=0.5;exitY=1;exitDx=0;exitDy=0;entryX=0.562;entryY=0.01;entryDx=0;entryDy=0;entryPerimeter=0;endArrow=none;endFill=0;" edge="1" parent="1" source="5RDlhihg--RsLZpTW5sZ-40" target="5RDlhihg--RsLZpTW5sZ-47">
          <mxGeometry relative="1" as="geometry" />
        </mxCell>
        <mxCell id="5RDlhihg--RsLZpTW5sZ-40" value="4" style="swimlane;whiteSpace=wrap;html=1;" vertex="1" parent="1">
          <mxGeometry x="410" y="550" width="130" height="100" as="geometry" />
        </mxCell>
        <mxCell id="5RDlhihg--RsLZpTW5sZ-41" value="Show Info&amp;nbsp;&lt;br&gt;about one course" style="text;html=1;align=center;verticalAlign=middle;resizable=0;points=[];autosize=1;strokeColor=none;fillColor=none;" vertex="1" parent="5RDlhihg--RsLZpTW5sZ-40">
          <mxGeometry x="5" y="45" width="120" height="40" as="geometry" />
        </mxCell>
        <mxCell id="5RDlhihg--RsLZpTW5sZ-47" value="4.2" style="swimlane;whiteSpace=wrap;html=1;" vertex="1" parent="1">
          <mxGeometry x="510" y="690" width="130" height="100" as="geometry" />
        </mxCell>
        <mxCell id="5RDlhihg--RsLZpTW5sZ-48" value="Add course to&lt;br&gt;favorites" style="text;html=1;align=center;verticalAlign=middle;resizable=0;points=[];autosize=1;strokeColor=none;fillColor=none;" vertex="1" parent="5RDlhihg--RsLZpTW5sZ-47">
          <mxGeometry x="15" y="45" width="100" height="40" as="geometry" />
        </mxCell>
        <mxCell id="5RDlhihg--RsLZpTW5sZ-59" style="edgeStyle=orthogonalEdgeStyle;rounded=0;orthogonalLoop=1;jettySize=auto;html=1;exitX=0.5;exitY=1;exitDx=0;exitDy=0;entryX=0.5;entryY=0;entryDx=0;entryDy=0;endArrow=none;endFill=0;" edge="1" parent="1" source="5RDlhihg--RsLZpTW5sZ-49" target="5RDlhihg--RsLZpTW5sZ-52">
          <mxGeometry relative="1" as="geometry" />
        </mxCell>
        <mxCell id="5RDlhihg--RsLZpTW5sZ-49" value="4.1" style="swimlane;whiteSpace=wrap;html=1;" vertex="1" parent="1">
          <mxGeometry x="310" y="690" width="130" height="100" as="geometry" />
        </mxCell>
        <mxCell id="5RDlhihg--RsLZpTW5sZ-50" value="Enroll the course" style="text;html=1;align=center;verticalAlign=middle;resizable=0;points=[];autosize=1;strokeColor=none;fillColor=none;" vertex="1" parent="5RDlhihg--RsLZpTW5sZ-49">
          <mxGeometry x="10" y="50" width="110" height="30" as="geometry" />
        </mxCell>
        <mxCell id="5RDlhihg--RsLZpTW5sZ-52" value="4.1.1" style="swimlane;whiteSpace=wrap;html=1;" vertex="1" parent="1">
          <mxGeometry x="310" y="830" width="130" height="100" as="geometry" />
        </mxCell>
        <mxCell id="5RDlhihg--RsLZpTW5sZ-53" value="Withdraw the course" style="text;html=1;align=center;verticalAlign=middle;resizable=0;points=[];autosize=1;strokeColor=none;fillColor=none;" vertex="1" parent="5RDlhihg--RsLZpTW5sZ-52">
          <mxGeometry y="50" width="130" height="30" as="geometry" />
        </mxCell>
      </root>
    </mxGraphModel>
  </diagram>
</mxfile>
